<?xml version="1.0" encoding="utf-8"?>
<!-- Generator: Adobe Illustrator 27.5.0, SVG Export Plug-In . SVG Version: 6.00 Build 0)  -->
<svg version="1.1" id="Layer_1" xmlns="http://www.w3.org/2000/svg" xmlns:xlink="http://www.w3.org/1999/xlink" x="0px" y="0px"
	 viewBox="0 0 742.64 229.53" style="enable-background:new 0 0 742.64 229.53;" xml:space="preserve">
<style type="text/css">
	.st0{fill:#FFFFFF;}
</style>
<g>
	<g>
		<path class="st0" d="M445.59,90.39c-2.49,0-4.54,2.05-4.54,4.6c0,2.55,2.05,4.48,4.54,4.48s4.54-2.05,4.54-4.48
			C450.13,92.55,448.13,90.39,445.59,90.39z"/>
	</g>
	<g>
		<rect x="441.93" y="102.29" class="st0" width="7.36" height="27.24"/>
	</g>
	<g>
		<path class="st0" d="M527.36,101.57c-2.93,0-6.2,1.27-7.86,4.1v-3.38h-7.14v27.24h7.36v-15.67c0-3.16,1.88-5.65,5.09-5.65
			c3.54,0,5.04,2.38,5.04,5.43v15.89h7.36v-17.16C537.22,106.39,534.12,101.57,527.36,101.57L527.36,101.57z"/>
	</g>
	<g>
		<path class="st0" d="M554.31,101.46c-8.14,0-14.28,6.04-14.28,14.45s6.15,14.45,14.28,14.45c8.14,0,14.28-6.09,14.28-14.45
			S562.45,101.46,554.31,101.46z M554.31,123.66c-3.6,0-6.92-2.66-6.92-7.75c0-5.09,3.32-7.75,6.92-7.75c3.6,0,6.92,2.6,6.92,7.75
			S557.91,123.66,554.31,123.66z"/>
	</g>
	<g>
		<path class="st0" d="M602.71,101.51c-3.6,0-6.48,1.22-8.64,4.54c-1.38-2.93-4.37-4.54-8.08-4.54c-2.99,0-6.48,1.44-7.97,4.1v-3.32
			h-7.03v27.24h7.36v-15.95c0-2.99,1.88-5.37,5.09-5.37s4.82,2.21,4.82,5.15v16.17h7.31v-15.95c0-2.93,1.88-5.37,5.04-5.37
			c3.38,0,4.82,2.21,4.82,5.15v16.17h7.14v-17.66C612.57,104.56,607.75,101.52,602.71,101.51L602.71,101.51z"/>
	</g>
	<g>
		<polygon class="st0" points="634.77,102.29 628.08,118.23 620.82,102.29 612.57,102.29 624.14,126.09 617.72,140.27 
			625.53,140.27 642.64,102.29 		"/>
	</g>
	<g>
		<path class="st0" d="M466.37,123.66c-3.6,0-6.92-2.66-6.92-7.75c0-5.09,3.32-7.75,6.92-7.75c2.23,0,4.2,1,5.38,3l6.95-2.28
			c-2.23-4.54-6.71-7.42-12.32-7.42c-8.14,0-14.28,6.04-14.28,14.45s6.15,14.45,14.28,14.45c6.76,0,11.87-4.21,13.4-10.43h-7.65
			C471.03,122.41,468.87,123.66,466.37,123.66L466.37,123.66z"/>
	</g>
	<g>
		<path class="st0" d="M495.28,101.46c-8.14,0-14.28,6.04-14.28,14.45s6.15,14.45,14.28,14.45s14.28-6.09,14.28-14.45
			S503.42,101.46,495.28,101.46z M495.28,123.66c-3.6,0-6.92-2.66-6.92-7.75c0-5.09,3.32-7.75,6.92-7.75c3.6,0,6.92,2.6,6.92,7.75
			S498.88,123.66,495.28,123.66z"/>
	</g>
	<g>
		<path class="st0" d="M432.22,105.67c1.51-2,1.82-3.92,1.82-6.22c0-2.3-2.09-9.18-9.72-9.18h-17.49v39.23h18.9
			c9.41,0,13.39-6.52,13.39-13.4C439.12,112.95,437.8,108.85,432.22,105.67L432.22,105.67z M414.22,96.29h8.91
			c2.05,0,3.71,1.66,3.71,3.71l0,0c0,2.05-1.66,3.71-3.71,3.71h-8.91V96.29L414.22,96.29z M424.86,123.48h-10.64v-13.75h10.64
			c3.8,0,6.87,3.08,6.87,6.87C431.73,120.82,428.99,123.48,424.86,123.48L424.86,123.48z"/>
	</g>
</g>
<g>
	<path class="st0" d="M100,89.93h16.36c1.21,0,2.26,0.07,3.16,0.22c3.34,0.51,5.85,1.9,7.55,4.17c1.7,2.26,2.54,5.1,2.54,8.51
		c0,2.22-0.37,4.22-1.12,6c-0.74,1.78-1.87,3.24-3.38,4.4c-1.51,1.16-3.38,1.91-5.6,2.25c-0.9,0.15-1.95,0.22-3.16,0.22h-9.73v13.83
		H100V89.93z M116.09,109.51c1.03,0,1.86-0.09,2.5-0.28c1.52-0.38,2.62-1.18,3.31-2.39s1.03-2.55,1.03-4.01s-0.34-2.81-1.03-4.03
		c-0.69-1.22-1.79-2.02-3.31-2.41c-0.66-0.17-1.5-0.25-2.5-0.25h-9.46v13.37H116.09z"/>
	<path class="st0" d="M138.91,128.36c-2.24-1.33-3.96-3.18-5.18-5.55c-1.22-2.38-1.83-5.08-1.83-8.13c0-3.08,0.62-5.81,1.86-8.18
		c1.24-2.37,2.97-4.22,5.21-5.53c2.24-1.31,4.8-1.97,7.7-1.97c2.95,0,5.54,0.67,7.78,1.99c2.24,1.33,3.97,3.18,5.2,5.55
		c1.23,2.38,1.84,5.08,1.84,8.13c0,3.06-0.62,5.78-1.86,8.15c-1.24,2.37-2.98,4.22-5.22,5.54c-2.25,1.32-4.83,1.98-7.74,1.98
		C143.73,130.35,141.15,129.69,138.91,128.36z M140.91,121.62c1.33,1.68,3.25,2.52,5.76,2.52c2.55,0,4.49-0.85,5.82-2.56
		c1.33-1.71,1.99-4.01,1.99-6.9c0-2.93-0.67-5.24-1.99-6.93c-1.33-1.69-3.27-2.53-5.82-2.53c-2.58,0-4.52,0.85-5.82,2.54
		c-1.29,1.7-1.94,4-1.94,6.92C138.91,117.63,139.58,119.94,140.91,121.62z"/>
	<path class="st0" d="M162.59,99.77l6.49,0.05l5.8,19.06l5.88-19.06h5.58l5.86,19.06l5.83-19.06h6.49l-9.07,29.7h-5.17l-6.74-20.43
		l-6.71,20.43h-5.17L162.59,99.77z"/>
	<path class="st0" d="M212.89,128.4c-2.29-1.3-4.07-3.12-5.35-5.45s-1.91-4.98-1.91-7.95c0-3.21,0.62-6.02,1.86-8.43
		c1.24-2.41,2.97-4.28,5.21-5.6c2.24-1.32,4.8-1.98,7.7-1.98c2.86,0,5.33,0.63,7.42,1.9c2.09,1.27,3.69,3.07,4.81,5.4
		c1.12,2.34,1.68,5.08,1.68,8.24c0,0.62-0.03,1.28-0.08,1.98h-21.5c0.26,2.46,1.04,4.34,2.35,5.65c1.31,1.31,3.08,1.97,5.32,1.97
		c1.61,0,3.02-0.36,4.21-1.09c1.19-0.72,2.11-1.77,2.75-3.15l6.54,1.98c-0.75,1.76-1.79,3.28-3.12,4.55
		c-1.33,1.28-2.85,2.25-4.56,2.92c-1.71,0.67-3.53,1-5.43,1C217.81,130.35,215.18,129.7,212.89,128.4z M227.52,111.52
		c-0.29-2.31-0.99-4-2.1-5.09s-2.69-1.62-4.74-1.62c-4.4,0-6.99,2.24-7.78,6.71H227.52z"/>
	<path class="st0" d="M239.29,99.83h5.86v4.76c0.81-1.39,1.8-2.46,2.97-3.19c0.83-0.57,1.76-0.99,2.8-1.28s2.12-0.43,3.22-0.43
		c0.57,0,1.19,0.05,1.87,0.14v6.19c-0.7-0.18-1.41-0.27-2.15-0.27c-1.52,0-2.85,0.33-3.99,0.99c-1.32,0.72-2.31,1.73-2.96,3.05
		c-0.65,1.32-0.98,2.87-0.98,4.65v15.1h-6.66V99.83z"/>
	<path class="st0" d="M265.19,128.4c-2.29-1.3-4.07-3.12-5.35-5.45s-1.91-4.98-1.91-7.95c0-3.21,0.62-6.02,1.86-8.43
		c1.24-2.41,2.97-4.28,5.21-5.6c2.24-1.32,4.8-1.98,7.7-1.98c2.86,0,5.33,0.63,7.42,1.9c2.09,1.27,3.69,3.07,4.81,5.4
		c1.12,2.34,1.68,5.08,1.68,8.24c0,0.62-0.03,1.28-0.08,1.98h-21.5c0.26,2.46,1.04,4.34,2.35,5.65c1.31,1.31,3.08,1.97,5.32,1.97
		c1.61,0,3.02-0.36,4.21-1.09c1.19-0.72,2.11-1.77,2.75-3.15l6.54,1.98c-0.75,1.76-1.79,3.28-3.12,4.55
		c-1.33,1.28-2.85,2.25-4.56,2.92c-1.71,0.67-3.53,1-5.43,1C270.11,130.35,267.48,129.7,265.19,128.4z M279.82,111.52
		c-0.29-2.31-0.99-4-2.1-5.09s-2.69-1.62-4.74-1.62c-4.4,0-6.99,2.24-7.78,6.71H279.82z"/>
	<path class="st0" d="M296.39,128.31c-2.06-1.37-3.65-3.24-4.77-5.61c-1.12-2.37-1.68-5.04-1.68-8.02c0-3.01,0.57-5.7,1.71-8.07
		c1.14-2.37,2.75-4.24,4.84-5.58S301,99,303.75,99c2.86,0,5.33,0.76,7.4,2.28V89.93h6.68v39.6h-5.86v-2.2
		c-2.22,2.02-5.04,3.03-8.47,3.03C300.82,130.35,298.45,129.67,296.39,128.31z M297.79,119.68c0.56,1.47,1.4,2.62,2.53,3.46
		c1.13,0.84,2.53,1.26,4.19,1.26c2.55,0,4.43-0.87,5.64-2.6s1.82-4.11,1.82-7.14c0-3.03-0.6-5.4-1.79-7.14
		c-1.19-1.73-3.01-2.6-5.45-2.6c-1.72,0-3.17,0.43-4.33,1.28c-1.17,0.85-2.03,2.01-2.6,3.48c-0.57,1.47-0.85,3.13-0.85,4.98
		C296.95,116.55,297.23,118.22,297.79,119.68z"/>
	<path class="st0" d="M340.13,127.33v2.2h-5.86v-39.6h6.68v11.36c2.07-1.52,4.54-2.28,7.4-2.28c2.75,0,5.17,0.67,7.26,2.02
		s3.7,3.21,4.84,5.58s1.71,5.06,1.71,8.07c0,2.97-0.56,5.64-1.68,8.02c-1.12,2.38-2.71,4.25-4.77,5.61
		c-2.06,1.37-4.43,2.05-7.11,2.05C345.17,130.35,342.34,129.35,340.13,127.33z M341.94,121.82c1.21,1.73,3.09,2.6,5.64,2.6
		c1.67,0,3.07-0.42,4.19-1.26c1.13-0.84,1.97-2,2.53-3.46c0.56-1.47,0.84-3.14,0.84-5.01c0-1.85-0.29-3.51-0.85-4.98
		c-0.57-1.47-1.44-2.63-2.6-3.48s-2.61-1.28-4.33-1.28c-2.44,0-4.25,0.87-5.44,2.6c-1.19,1.73-1.79,4.11-1.79,7.14
		C340.13,117.7,340.73,120.08,341.94,121.82z"/>
	<path class="st0" d="M373.9,129.31l-12.02-29.48h6.9l8.3,21.26l8.06-21.26h6.63l-16.56,42.9H369L373.9,129.31z"/>
</g>
</svg>
